REM DIRINDEX 1\2\4\8,1\2\4\9,1\2\4\10,1\2\5\11,1\2\5\12,1\2\5\13,1\2\5\14,1\2\5\15,1\3\6\16,1\3\6\17,1\3\6\18,1\3\7\19,1\3\7\20,1\3\7\21,1\3\7\22,1\3\7\23
REM DIRNAME "folder01","folder02","folder03","folder04","folder05","folder06","folder07","folder08","folder09","folder10","folder11","folder12","folder13","folder14","folder15","folder16","folder17","folder18","folder19","folder20","folder21","folder22","folder23"
TITLE ""
FILE "LR_black_phrase_E_B07.mp3" MP3
  TRACK 01 AUDIO
    TITLE "0:"
    INDEX 01 00:00:00
  TRACK 02 AUDIO
    TITLE "16:cjc171_09441"
    INDEX 01 00:00:16
  TRACK 03 AUDIO
    TITLE "0:"
    INDEX 01 00:01:43
  TRACK 04 AUDIO
    TITLE "17:cjc171_09442"
    INDEX 01 00:01:72
  TRACK 05 AUDIO
    TITLE "0:"
    INDEX 01 00:04:57
  TRACK 06 AUDIO
    TITLE "18:cjc171_09443"
    INDEX 01 00:05:39
  TRACK 07 AUDIO
    TITLE "0:"
    INDEX 01 00:08:24
  TRACK 08 AUDIO
    TITLE "16:cjc171_09444"
    INDEX 01 00:09:27
  TRACK 09 AUDIO
    TITLE "0:"
    INDEX 01 00:10:26
  TRACK 10 AUDIO
    TITLE "17:cjc171_09445"
    INDEX 01 00:10:56
  TRACK 11 AUDIO
    TITLE "0:"
    INDEX 01 00:12:74
  TRACK 12 AUDIO
    TITLE "18:cjc171_09446"
    INDEX 01 00:13:56
  TRACK 13 AUDIO
    TITLE "0:"
    INDEX 01 00:16:00
  TRACK 14 AUDIO
    TITLE "16:cjc171_09447"
    INDEX 01 00:17:05
  TRACK 15 AUDIO
    TITLE "0:"
    INDEX 01 00:18:36
  TRACK 16 AUDIO
    TITLE "17:cjc171_09448"
    INDEX 01 00:18:67
  TRACK 17 AUDIO
    TITLE "0:"
    INDEX 01 00:21:22
  TRACK 18 AUDIO
    TITLE "18:cjc171_09449"
    INDEX 01 00:22:02
  TRACK 19 AUDIO
    TITLE "0:"
    INDEX 01 00:24:34
  TRACK 20 AUDIO
    TITLE "16:cjc171_09450"
    INDEX 01 00:25:34
  TRACK 21 AUDIO
    TITLE "0:"
    INDEX 01 00:26:55
  TRACK 22 AUDIO
    TITLE "17:cjc171_09451"
    INDEX 01 00:26:74
  TRACK 23 AUDIO
    TITLE "0:"
    INDEX 01 00:29:24
  TRACK 24 AUDIO
    TITLE "18:cjc171_09452"
    INDEX 01 00:29:67
  TRACK 25 AUDIO
    TITLE "0:"
    INDEX 01 00:32:16
  TRACK 26 AUDIO
    TITLE "16:cjc171_09453"
    INDEX 01 00:33:12
  TRACK 27 AUDIO
    TITLE "0:"
    INDEX 01 00:34:17
  TRACK 28 AUDIO
    TITLE "17:cjc171_09454"
    INDEX 01 00:34:37
  TRACK 29 AUDIO
    TITLE "0:"
    INDEX 01 00:36:43
  TRACK 30 AUDIO
    TITLE "18:cjc171_09455"
    INDEX 01 00:37:11
  TRACK 31 AUDIO
    TITLE "0:"
    INDEX 01 00:39:18
  TRACK 32 AUDIO
    TITLE "16:cjc171_09456"
    INDEX 01 00:40:12
  TRACK 33 AUDIO
    TITLE "0:"
    INDEX 01 00:41:37
  TRACK 34 AUDIO
    TITLE "17:cjc171_09457"
    INDEX 01 00:41:56
  TRACK 35 AUDIO
    TITLE "0:"
    INDEX 01 00:43:59
  TRACK 36 AUDIO
    TITLE "18:cjc171_09458"
    INDEX 01 00:44:27
  TRACK 37 AUDIO
    TITLE "0:"
    INDEX 01 00:46:28
  TRACK 38 AUDIO
    TITLE "16:cjc171_09459"
    INDEX 01 00:47:27
  TRACK 39 AUDIO
    TITLE "0:"
    INDEX 01 00:48:41
  TRACK 40 AUDIO
    TITLE "17:cjc171_09460"
    INDEX 01 00:48:72
  TRACK 41 AUDIO
    TITLE "0:"
    INDEX 01 00:50:57
  TRACK 42 AUDIO
    TITLE "18:cjc171_09461"
    INDEX 01 00:51:41
  TRACK 43 AUDIO
    TITLE "0:"
    INDEX 01 00:53:30
  TRACK 44 AUDIO
    TITLE "16:cjc171_09462"
    INDEX 01 00:54:35
  TRACK 45 AUDIO
    TITLE "0:"
    INDEX 01 00:55:45
  TRACK 46 AUDIO
    TITLE "17:cjc171_09463"
    INDEX 01 00:56:01
  TRACK 47 AUDIO
    TITLE "0:"
    INDEX 01 00:58:47
  TRACK 48 AUDIO
    TITLE "18:cjc171_09464"
    INDEX 01 00:59:25
  TRACK 49 AUDIO
    TITLE "0:"
    INDEX 01 01:01:73
  TRACK 50 AUDIO
    TITLE "16:cjc171_09465"
    INDEX 01 01:02:74
  TRACK 51 AUDIO
    TITLE "0:"
    INDEX 01 01:04:18
  TRACK 52 AUDIO
    TITLE "17:cjc171_09466"
    INDEX 01 01:04:48
  TRACK 53 AUDIO
    TITLE "0:"
    INDEX 01 01:06:64
  TRACK 54 AUDIO
    TITLE "18:cjc171_09467"
    INDEX 01 01:07:42
  TRACK 55 AUDIO
    TITLE "0:"
    INDEX 01 01:09:58
  TRACK 56 AUDIO
    TITLE "16:cjc171_09468"
    INDEX 01 01:10:58
  TRACK 57 AUDIO
    TITLE "0:"
    INDEX 01 01:12:04
  TRACK 58 AUDIO
    TITLE "17:cjc171_09469"
    INDEX 01 01:12:27
  TRACK 59 AUDIO
    TITLE "0:"
    INDEX 01 01:14:40
  TRACK 60 AUDIO
    TITLE "18:cjc171_09470"
    INDEX 01 01:15:10
  TRACK 61 AUDIO
    TITLE "0:"
    INDEX 01 01:17:23
  TRACK 62 AUDIO
    TITLE "16:cjc171_09471"
    INDEX 01 01:18:18
  TRACK 63 AUDIO
    TITLE "0:"
    INDEX 01 01:19:43
  TRACK 64 AUDIO
    TITLE "17:cjc171_09472"
    INDEX 01 01:19:63
  TRACK 65 AUDIO
    TITLE "0:"
    INDEX 01 01:22:04
  TRACK 66 AUDIO
    TITLE "18:cjc171_09473"
    INDEX 01 01:22:51
  TRACK 67 AUDIO
    TITLE "0:"
    INDEX 01 01:24:70
  TRACK 68 AUDIO
    TITLE "16:cjc171_09474"
    INDEX 01 01:25:67
  TRACK 69 AUDIO
    TITLE "0:"
    INDEX 01 01:27:21
  TRACK 70 AUDIO
    TITLE "17:cjc171_09475"
    INDEX 01 01:27:47
  TRACK 71 AUDIO
    TITLE "0:"
    INDEX 01 01:29:55
  TRACK 72 AUDIO
    TITLE "18:cjc171_09476"
    INDEX 01 01:30:29
  TRACK 73 AUDIO
    TITLE "0:"
    INDEX 01 01:32:38
  TRACK 74 AUDIO
    TITLE "16:cjc171_09477"
    INDEX 01 01:33:41
  TRACK 75 AUDIO
    TITLE "0:"
    INDEX 01 01:34:54
  TRACK 76 AUDIO
    TITLE "17:cjc171_09478"
    INDEX 01 01:35:07
  TRACK 77 AUDIO
    TITLE "0:"
    INDEX 01 01:37:00
  TRACK 78 AUDIO
    TITLE "18:cjc171_09479"
    INDEX 01 01:37:55
  TRACK 79 AUDIO
    TITLE "0:"
    INDEX 01 01:39:48
  TRACK 80 AUDIO
    TITLE "16:cjc171_09480"
    INDEX 01 01:40:51
  TRACK 81 AUDIO
    TITLE "0:"
    INDEX 01 01:42:11
  TRACK 82 AUDIO
    TITLE "17:cjc171_09481"
    INDEX 01 01:42:40
  TRACK 83 AUDIO
    TITLE "0:"
    INDEX 01 01:45:07
  TRACK 84 AUDIO
    TITLE "18:cjc171_09482"
    INDEX 01 01:45:62
  TRACK 85 AUDIO
    TITLE "0:"
    INDEX 01 01:48:29
  TRACK 86 AUDIO
    TITLE "16:cjc171_09483"
    INDEX 01 01:49:34
  TRACK 87 AUDIO
    TITLE "0:"
    INDEX 01 01:50:52
  TRACK 88 AUDIO
    TITLE "17:cjc171_09484"
    INDEX 01 01:51:04
  TRACK 89 AUDIO
    TITLE "0:"
    INDEX 01 01:53:17
  TRACK 90 AUDIO
    TITLE "18:cjc171_09485"
    INDEX 01 01:53:71
  TRACK 91 AUDIO
    TITLE "0:"
    INDEX 01 01:56:09
  TRACK 92 AUDIO
    TITLE "16:cjc171_09486"
    INDEX 01 01:57:09
  TRACK 93 AUDIO
    TITLE "0:"
    INDEX 01 01:58:31
  TRACK 94 AUDIO
    TITLE "17:cjc171_09487"
    INDEX 01 01:58:51
  TRACK 95 AUDIO
    TITLE "0:"
    INDEX 01 02:01:10
  TRACK 96 AUDIO
    TITLE "18:cjc171_09488"
    INDEX 01 02:01:55
  TRACK 97 AUDIO
    TITLE "0:"
    INDEX 01 02:04:16
  TRACK 98 AUDIO
    TITLE "16:cjc171_09489"
    INDEX 01 02:05:10
  TRACK 99 AUDIO
    TITLE "0:"
    INDEX 01 02:06:31
  TRACK 100 AUDIO
    TITLE "17:cjc171_09490"
    INDEX 01 02:06:51
  TRACK 101 AUDIO
    TITLE "0:"
    INDEX 01 02:08:63
  TRACK 102 AUDIO
    TITLE "18:cjc171_09491"
    INDEX 01 02:09:33
  TRACK 103 AUDIO
    TITLE "0:"
    INDEX 01 02:11:46
  TRACK 104 AUDIO
    TITLE "16:cjc171_09492"
    INDEX 01 02:12:41
  TRACK 105 AUDIO
    TITLE "0:"
    INDEX 01 02:14:01
  TRACK 106 AUDIO
    TITLE "17:cjc171_09493"
    INDEX 01 02:14:21
  TRACK 107 AUDIO
    TITLE "0:"
    INDEX 01 02:16:20
  TRACK 108 AUDIO
    TITLE "18:cjc171_09494"
    INDEX 01 02:16:65
  TRACK 109 AUDIO
    TITLE "0:"
    INDEX 01 02:18:64
  TRACK 110 AUDIO
    TITLE "16:cjc171_09495"
    INDEX 01 02:19:65
  TRACK 111 AUDIO
    TITLE "0:"
    INDEX 01 02:21:11
  TRACK 112 AUDIO
    TITLE "17:cjc171_09496"
    INDEX 01 02:21:42
  TRACK 113 AUDIO
    TITLE "0:"
    INDEX 01 02:23:63
  TRACK 114 AUDIO
    TITLE "18:cjc171_09497"
    INDEX 01 02:24:43
  TRACK 115 AUDIO
    TITLE "0:"
    INDEX 01 02:26:63
  TRACK 116 AUDIO
    TITLE "16:cjc171_09498"
    INDEX 01 02:27:68
  TRACK 117 AUDIO
    TITLE "0:"
    INDEX 01 02:29:14
  TRACK 118 AUDIO
    TITLE "17:cjc171_09499"
    INDEX 01 02:29:42
  TRACK 119 AUDIO
    TITLE "0:"
    INDEX 01 02:31:27
  TRACK 120 AUDIO
    TITLE "18:cjc171_09500"
    INDEX 01 02:32:07
  TRACK 121 AUDIO
    TITLE "0:"
    INDEX 01 02:33:69
  TRACK 122 AUDIO
    TITLE "16:cjc171_09501"
    INDEX 01 02:34:72
  TRACK 123 AUDIO
    TITLE "0:"
    INDEX 01 02:36:07
  TRACK 124 AUDIO
    TITLE "17:cjc171_09502"
    INDEX 01 02:36:38
  TRACK 125 AUDIO
    TITLE "0:"
    INDEX 01 02:38:29
  TRACK 126 AUDIO
    TITLE "18:cjc171_09503"
    INDEX 01 02:39:07
  TRACK 127 AUDIO
    TITLE "0:"
    INDEX 01 02:41:00
  TRACK 128 AUDIO
    TITLE "16:cjc171_09504"
    INDEX 01 02:41:74
  TRACK 129 AUDIO
    TITLE "0:"
    INDEX 01 02:43:16
  TRACK 130 AUDIO
    TITLE "17:cjc171_09505"
    INDEX 01 02:43:38
  TRACK 131 AUDIO
    TITLE "0:"
    INDEX 01 02:45:47
  TRACK 132 AUDIO
    TITLE "18:cjc171_09506"
    INDEX 01 02:46:23
  TRACK 133 AUDIO
    TITLE "0:"
    INDEX 01 02:48:31
  TRACK 134 AUDIO
    TITLE "16:cjc171_09507"
    INDEX 01 02:49:33
  TRACK 135 AUDIO
    TITLE "0:"
    INDEX 01 02:50:52
  TRACK 136 AUDIO
    TITLE "17:cjc171_09508"
    INDEX 01 02:51:00
  TRACK 137 AUDIO
    TITLE "0:"
    INDEX 01 02:53:60
  TRACK 138 AUDIO
    TITLE "18:cjc171_09509"
    INDEX 01 02:54:32
  TRACK 139 AUDIO
    TITLE "0:"
    INDEX 01 02:57:17
  TRACK 140 AUDIO
    TITLE "16:cjc171_09510"
    INDEX 01 02:58:12
  TRACK 141 AUDIO
    TITLE "0:"
    INDEX 01 02:59:27
  TRACK 142 AUDIO
    TITLE "17:cjc171_09511"
    INDEX 01 02:59:47
  TRACK 143 AUDIO
    TITLE "0:"
    INDEX 01 03:01:57
  TRACK 144 AUDIO
    TITLE "18:cjc171_09512"
    INDEX 01 03:02:28
  TRACK 145 AUDIO
    TITLE "0:"
    INDEX 01 03:04:36
  TRACK 146 AUDIO
    TITLE "16:cjc171_09513"
    INDEX 01 03:05:40
  TRACK 147 AUDIO
    TITLE "0:"
    INDEX 01 03:06:66
  TRACK 148 AUDIO
    TITLE "17:cjc171_09514"
    INDEX 01 03:07:19
  TRACK 149 AUDIO
    TITLE "0:"
    INDEX 01 03:09:47
  TRACK 150 AUDIO
    TITLE "18:cjc171_09515"
    INDEX 01 03:10:27
  TRACK 151 AUDIO
    TITLE "0:"
    INDEX 01 03:12:55
  TRACK 152 AUDIO
    TITLE "16:cjc171_09516"
    INDEX 01 03:13:61
  TRACK 153 AUDIO
    TITLE "0:"
    INDEX 01 03:15:05
  TRACK 154 AUDIO
    TITLE "17:cjc171_09517"
    INDEX 01 03:15:32
  TRACK 155 AUDIO
    TITLE "0:"
    INDEX 01 03:17:37
  TRACK 156 AUDIO
    TITLE "18:cjc171_09518"
    INDEX 01 03:18:15
  TRACK 157 AUDIO
    TITLE "0:"
    INDEX 01 03:20:20
  TRACK 158 AUDIO
    TITLE "16:cjc171_09519"
    INDEX 01 03:21:21
  TRACK 159 AUDIO
    TITLE "0:"
    INDEX 01 03:22:38
  TRACK 160 AUDIO
    TITLE "17:cjc171_09520"
    INDEX 01 03:22:60
  TRACK 161 AUDIO
    TITLE "0:"
    INDEX 01 03:24:43
  TRACK 162 AUDIO
    TITLE "18:cjc171_09521"
    INDEX 01 03:25:17
  TRACK 163 AUDIO
    TITLE "0:"
    INDEX 01 03:27:00
  TRACK 164 AUDIO
    TITLE "16:cjc171_09522"
    INDEX 01 03:28:00
  TRACK 165 AUDIO
    TITLE "0:"
    INDEX 01 03:29:07
  TRACK 166 AUDIO
    TITLE "17:cjc171_09523"
    INDEX 01 03:29:30
  TRACK 167 AUDIO
    TITLE "0:"
    INDEX 01 03:31:19
  TRACK 168 AUDIO
    TITLE "18:cjc171_09524"
    INDEX 01 03:31:66
  TRACK 169 AUDIO
    TITLE "0:"
    INDEX 01 03:33:57
  TRACK 170 AUDIO
    TITLE "16:cjc171_09525"
    INDEX 01 03:34:55
  TRACK 171 AUDIO
    TITLE "0:"
    INDEX 01 03:35:68
  TRACK 172 AUDIO
    TITLE "17:cjc171_09526"
    INDEX 01 03:36:15
  TRACK 173 AUDIO
    TITLE "0:"
    INDEX 01 03:38:45
  TRACK 174 AUDIO
    TITLE "18:cjc171_09527"
    INDEX 01 03:39:23
  TRACK 175 AUDIO
    TITLE "0:"
    INDEX 01 03:41:55
  TRACK 176 AUDIO
    TITLE "16:cjc171_09528"
    INDEX 01 03:42:54
  TRACK 177 AUDIO
    TITLE "0:"
    INDEX 01 03:44:06
  TRACK 178 AUDIO
    TITLE "17:cjc171_09529"
    INDEX 01 03:44:26
  TRACK 179 AUDIO
    TITLE "0:"
    INDEX 01 03:46:23
  TRACK 180 AUDIO
    TITLE "18:cjc171_09530"
    INDEX 01 03:46:66
  TRACK 181 AUDIO
    TITLE "0:"
    INDEX 01 03:48:63
